<svg width="10" height="11" viewBox="0 0 10 11" fill="none" xmlns="http://www.w3.org/2000/svg">
<path d="M0.700012 4.45479C0.313413 4.45479 1.22865e-05 4.76819 1.2219e-05 5.15479C1.21514e-05 5.54138 0.313413 5.85479 0.700012 5.85479L0.700012 5.15479L0.700012 4.45479ZM9.50268 5.64976C9.77605 5.37639 9.77605 4.93318 9.50268 4.65981L5.04791 0.205038C4.77454 -0.0683286 4.33133 -0.0683287 4.05796 0.205038C3.78459 0.478406 3.78459 0.921621 4.05796 1.19499L8.01776 5.15479L4.05796 9.11458C3.78459 9.38795 3.78459 9.83117 4.05796 10.1045C4.33132 10.3779 4.77454 10.3779 5.04791 10.1045L9.50268 5.64976ZM0.700012 5.15479L0.700012 5.85479L9.0077 5.85479L9.0077 5.15479L9.0077 4.45479L0.700012 4.45479L0.700012 5.15479Z" fill="white"/>
</svg>
